<svg width="13" height="13" viewBox="0 0 13 13" fill="none" xmlns="http://www.w3.org/2000/svg">
<path d="M6.45928 0.0001094C4.76585 0.0001094 3.14183 0.672794 1.94434 1.87023C0.746903 3.06766 0.0742188 4.69182 0.0742188 6.38517C0.0742188 8.07851 0.746903 9.70262 1.94434 10.9001C3.14177 12.0975 4.76593 12.7702 6.45928 12.7702C8.15262 12.7702 9.77673 12.0975 10.9742 10.9001C12.1716 9.70267 12.8443 8.07851 12.8443 6.38517C12.8443 5.26438 12.5493 4.16327 11.989 3.1925C11.4285 2.22189 10.6224 1.41581 9.65183 0.855373C8.68112 0.295021 7.58001 0 6.45917 0L6.45928 0.0001094ZM6.45928 11.4934C5.10449 11.4934 3.80521 10.9552 2.84738 9.99717C1.88939 9.03929 1.35118 7.74 1.35118 6.38528C1.35118 5.03055 1.88939 3.73121 2.84738 2.77338C3.80526 1.81539 5.10455 1.27718 6.45928 1.27718C7.814 1.27718 9.11335 1.81539 10.0712 2.77338C11.0292 3.73126 11.5674 5.03055 11.5674 6.38528C11.5674 7.28192 11.3314 8.16282 10.8829 8.9393C10.4346 9.71589 9.78983 10.3607 9.01324 10.809C8.23676 11.2574 7.35586 11.4934 6.45922 11.4934L6.45928 11.4934Z" fill="url(#paint0_linear_2423_2011)"/>
<path d="M5.78859 5.15272H7.06566C7.23498 5.15272 7.39735 5.22006 7.51707 5.33978C7.6369 5.4595 7.70414 5.62197 7.70414 5.7913H8.9812C8.9812 5.28325 8.77939 4.79602 8.42011 4.43674C8.06084 4.07758 7.57361 3.87576 7.06566 3.87576V2.59869H5.78859V3.87576C5.28053 3.87576 4.7933 4.07758 4.43414 4.43674C4.07486 4.79602 3.87305 5.28325 3.87305 5.7913V7.06837V7.06826C3.87305 7.57632 4.07486 8.06355 4.43414 8.42283C4.7933 8.78199 5.28053 8.98381 5.78859 8.98381V10.2609H7.06566V8.98381C7.57361 8.98381 8.06084 8.78199 8.42011 8.42283C8.77939 8.06355 8.9812 7.57632 8.9812 7.06826H7.70414C7.70414 7.23769 7.6369 7.40006 7.51707 7.51978C7.39735 7.63951 7.23497 7.70685 7.06566 7.70685H5.78859C5.61927 7.70685 5.45679 7.63951 5.33707 7.51978C5.21735 7.40006 5.15012 7.23768 5.15012 7.06826V5.7912V5.7913C5.15012 5.62198 5.21735 5.4595 5.33707 5.33978C5.45679 5.22006 5.61926 5.15272 5.78859 5.15272Z" fill="url(#paint1_linear_2423_2011)"/>
<defs>
<linearGradient id="paint0_linear_2423_2011" x1="1.42862" y1="0.773946" x2="11.103" y2="13.931" gradientUnits="userSpaceOnUse">
<stop stop-color="#2AF6FF"/>
<stop offset="1" stop-color="#0867C4"/>
</linearGradient>
<linearGradient id="paint1_linear_2423_2011" x1="4.41482" y1="3.06306" x2="10.467" y2="8.55042" gradientUnits="userSpaceOnUse">
<stop stop-color="#2AF6FF"/>
<stop offset="1" stop-color="#0867C4"/>
</linearGradient>
</defs>
</svg>
